<svg width="217" height="217" viewBox="0 0 217 217" fill="none" xmlns="http://www.w3.org/2000/svg">
<path d="M216.983 106.578L156.182 122.871C150.452 124.406 147.586 125.174 145.065 126.313C137.143 129.891 130.892 136.367 127.597 144.411C126.548 146.972 125.882 149.862 124.55 155.643L110.422 216.983L94.1291 156.182C92.5935 150.452 91.8257 147.587 90.6869 145.065C87.109 137.143 80.6325 130.892 72.5884 127.597C70.0282 126.548 67.1376 125.882 61.3564 124.551L0.0167308 110.422L60.8174 94.1294C66.5478 92.5938 69.4129 91.8261 71.9344 90.6873C79.8567 87.1093 86.1077 80.6329 89.4028 72.5888C90.4515 70.0285 91.1173 67.1379 92.4489 61.3568L106.578 0.0170989L122.87 60.8178C124.406 66.5481 125.174 69.4133 126.312 71.9348C129.89 79.8571 136.367 86.1081 144.411 89.4031C146.971 90.4519 149.862 91.1177 155.643 92.4493L216.983 106.578Z" fill="white"/>
</svg>
