<svg width="218" height="218" viewBox="0 0 218 218" fill="none" xmlns="http://www.w3.org/2000/svg">
<path d="M217.889 107.483L157.088 123.776C151.358 125.311 148.493 126.079 145.971 127.218C138.049 130.796 131.798 137.272 128.503 145.316C127.454 147.877 126.788 150.767 125.457 156.548L111.328 217.888L95.0353 157.087C93.4997 151.357 92.7319 148.492 91.5932 145.97C88.0152 138.048 81.5387 131.797 73.4946 128.502C70.9344 127.453 68.0438 126.788 62.2626 125.456L0.922981 111.327L61.7236 95.0344C67.454 93.4989 70.3192 92.7311 72.8407 91.5923C80.763 88.0144 87.014 81.5379 90.309 73.4938C91.3577 70.9336 92.0236 68.043 93.3552 62.2618L107.484 0.922128L123.777 61.7228C125.312 67.4532 126.08 70.3184 127.219 72.8398C130.797 80.7621 137.273 87.0131 145.317 90.3082C147.877 91.3569 150.768 92.0227 156.549 93.3543L217.889 107.483Z" fill="url(#paint0_linear_1585_13)"/>
<defs>
<linearGradient id="paint0_linear_1585_13" x1="17.5" y1="196" x2="204" y2="51" gradientUnits="userSpaceOnUse">
<stop stop-color="#06E286"/>
<stop offset="1" stop-color="#000A07"/>
</linearGradient>
</defs>
</svg>
